<svg width="165" height="36" viewBox="0 0 165 36" fill="none" xmlns="http://www.w3.org/2000/svg">
<path d="M0 5V18L11 31H21L0 5Z" fill="#FF4654"/>
<path d="M32.5 4V18.5L28 23H17L32.5 4Z" fill="#FF4654"/>
<path d="M51.94 29V9.56H60.34V12.464H56.236V17.36H59.812V20.36H56.236V29H51.94ZM62.3463 29V9.56H67.6983C69.0103 9.56 70.1463 9.704 71.1063 9.992C72.0663 10.28 72.8103 10.8 73.3383 11.552C73.8823 12.288 74.1543 13.336 74.1543 14.696C74.1543 15.496 74.0903 16.208 73.9623 16.832C73.8343 17.456 73.5943 18 73.2422 18.464C72.9063 18.912 72.4183 19.288 71.7783 19.592L74.4423 29H70.0023L67.8663 20.288H66.6423V29H62.3463ZM66.6423 17.816H67.8423C68.4503 17.816 68.9223 17.712 69.2583 17.504C69.5943 17.28 69.8263 16.968 69.9543 16.568C70.0983 16.152 70.1703 15.656 70.1703 15.08C70.1703 14.248 70.0183 13.6 69.7143 13.136C69.4103 12.672 68.8503 12.44 68.0343 12.44H66.6423V17.816ZM76.7369 29V9.56H85.4729V12.488H81.0329V17.312H84.4169V20.288H81.0329V26.096H85.5209V29H76.7369ZM87.4713 29V9.56H96.2073V12.488H91.7673V17.312H95.1513V20.288H91.7673V26.096H96.2553V29H87.4713ZM97.7496 29V26.168L102.406 19.016C102.758 18.488 103.086 17.976 103.39 17.48C103.71 16.984 103.966 16.48 104.158 15.968C104.366 15.456 104.47 14.92 104.47 14.36C104.47 13.8 104.358 13.384 104.134 13.112C103.91 12.84 103.606 12.704 103.222 12.704C102.79 12.704 102.454 12.824 102.214 13.064C101.974 13.304 101.806 13.624 101.71 14.024C101.63 14.424 101.59 14.872 101.59 15.368V16.328H97.7016V15.296C97.7016 14.144 97.8856 13.12 98.2536 12.224C98.6216 11.312 99.2056 10.6 100.006 10.088C100.806 9.56 101.854 9.296 103.15 9.296C104.894 9.296 106.206 9.752 107.086 10.664C107.982 11.56 108.43 12.816 108.43 14.432C108.43 15.216 108.302 15.944 108.046 16.616C107.806 17.288 107.478 17.944 107.062 18.584C106.662 19.208 106.23 19.864 105.766 20.552L102.214 25.856H107.902V29H97.7496ZM115.598 29.288C114.254 29.288 113.19 29.008 112.406 28.448C111.638 27.888 111.086 27.104 110.75 26.096C110.43 25.072 110.27 23.896 110.27 22.568V16.04C110.27 14.664 110.446 13.472 110.798 12.464C111.15 11.456 111.75 10.68 112.598 10.136C113.462 9.576 114.63 9.296 116.102 9.296C117.542 9.296 118.67 9.536 119.486 10.016C120.318 10.496 120.91 11.16 121.262 12.008C121.614 12.856 121.79 13.848 121.79 14.984V16.232H117.59V14.648C117.59 14.232 117.558 13.848 117.494 13.496C117.446 13.144 117.318 12.864 117.11 12.656C116.918 12.432 116.598 12.32 116.15 12.32C115.686 12.32 115.35 12.448 115.142 12.704C114.934 12.944 114.798 13.248 114.734 13.616C114.686 13.984 114.662 14.368 114.662 14.768V23.768C114.662 24.2 114.702 24.608 114.782 24.992C114.878 25.36 115.038 25.664 115.262 25.904C115.502 26.128 115.838 26.24 116.27 26.24C116.718 26.24 117.062 26.12 117.302 25.88C117.542 25.64 117.71 25.328 117.806 24.944C117.902 24.56 117.95 24.152 117.95 23.72V21.44H116.198V18.92H121.814V29H118.982L118.742 27.392C118.486 27.936 118.11 28.392 117.614 28.76C117.118 29.112 116.446 29.288 115.598 29.288ZM123.567 29L127.239 9.56H132.135L135.759 29H131.799L131.151 24.896H128.295L127.623 29H123.567ZM128.679 22.328H130.743L129.711 14.744L128.679 22.328ZM137.649 29L137.985 9.56H142.593L144.729 20.864L147.033 9.56H151.473L151.809 29H148.761L148.401 16.064L146.145 29H143.433L141.033 15.968L140.745 29H137.649ZM154.62 29V9.56H163.356V12.488H158.916V17.312H162.3V20.288H158.916V26.096H163.404V29H154.62Z" fill="white"/>
</svg>
